<mxfile host="app.diagrams.net" modified="2024-01-24T15:42:24.809Z" agent="Mozilla/5.0 (Macintosh; Intel Mac OS X 10_15_7) AppleWebKit/537.36 (KHTML, like Gecko) Chrome/120.0.0.0 Safari/537.36 Edg/120.0.0.0" etag="gXXLxAMMNNsirca7cTgx" version="22.1.21" type="github" pages="2">
  <diagram name="SCD" id="aAuIVA0hgeZ9380VY8r9">
    <mxGraphModel dx="1184" dy="859" grid="0" gridSize="10" guides="1" tooltips="1" connect="1" arrows="1" fold="1" page="1" pageScale="1" pageWidth="1169" pageHeight="827" math="0" shadow="0">
      <root>
        <mxCell id="0" />
        <mxCell id="1" parent="0" />
        <mxCell id="en9qmG7H2PPP-TzCxMRi-32" value="AWS Cloud" style="points=[[0,0],[0.25,0],[0.5,0],[0.75,0],[1,0],[1,0.25],[1,0.5],[1,0.75],[1,1],[0.75,1],[0.5,1],[0.25,1],[0,1],[0,0.75],[0,0.5],[0,0.25]];outlineConnect=0;html=1;whiteSpace=wrap;fontSize=12;fontStyle=0;container=1;pointerEvents=0;collapsible=0;recursiveResize=0;shape=mxgraph.aws4.group;grIcon=mxgraph.aws4.group_aws_cloud_alt;strokeColor=#666666;fillColor=#f5f5f5;verticalAlign=top;align=left;spacingLeft=30;fontColor=#333333;dashed=0;" vertex="1" parent="1">
          <mxGeometry x="340" y="140" width="400" height="400" as="geometry" />
        </mxCell>
        <mxCell id="en9qmG7H2PPP-TzCxMRi-33" value="Store to S3" style="text;html=1;align=center;verticalAlign=middle;resizable=0;points=[];autosize=1;strokeColor=none;fillColor=none;" vertex="1" parent="en9qmG7H2PPP-TzCxMRi-32">
          <mxGeometry x="251" y="233" width="80" height="30" as="geometry" />
        </mxCell>
        <mxCell id="en9qmG7H2PPP-TzCxMRi-34" value="Save Data" style="text;html=1;align=center;verticalAlign=middle;resizable=0;points=[];autosize=1;strokeColor=none;fillColor=none;" vertex="1" parent="en9qmG7H2PPP-TzCxMRi-32">
          <mxGeometry x="60" y="233" width="80" height="30" as="geometry" />
        </mxCell>
        <mxCell id="en9qmG7H2PPP-TzCxMRi-35" value="Query Data" style="text;html=1;align=center;verticalAlign=middle;resizable=0;points=[];autosize=1;strokeColor=none;fillColor=none;" vertex="1" parent="en9qmG7H2PPP-TzCxMRi-32">
          <mxGeometry x="140" y="335" width="80" height="30" as="geometry" />
        </mxCell>
        <mxCell id="en9qmG7H2PPP-TzCxMRi-36" style="edgeStyle=orthogonalEdgeStyle;rounded=0;orthogonalLoop=1;jettySize=auto;html=1;exitX=0.5;exitY=0;exitDx=0;exitDy=0;entryX=0;entryY=0.5;entryDx=0;entryDy=0;" edge="1" parent="1" source="en9qmG7H2PPP-TzCxMRi-1" target="en9qmG7H2PPP-TzCxMRi-26">
          <mxGeometry relative="1" as="geometry" />
        </mxCell>
        <mxCell id="en9qmG7H2PPP-TzCxMRi-1" value="File Integration Project" style="rounded=0;whiteSpace=wrap;html=1;fillColor=#d5e8d4;strokeColor=#82b366;" vertex="1" parent="1">
          <mxGeometry x="440" y="200" width="200" height="160" as="geometry" />
        </mxCell>
        <mxCell id="en9qmG7H2PPP-TzCxMRi-29" style="edgeStyle=orthogonalEdgeStyle;rounded=0;orthogonalLoop=1;jettySize=auto;html=1;exitX=0.25;exitY=1;exitDx=0;exitDy=0;entryX=0.5;entryY=0;entryDx=0;entryDy=0;" edge="1" parent="1" source="en9qmG7H2PPP-TzCxMRi-1" target="en9qmG7H2PPP-TzCxMRi-4">
          <mxGeometry relative="1" as="geometry" />
        </mxCell>
        <mxCell id="en9qmG7H2PPP-TzCxMRi-30" style="edgeStyle=orthogonalEdgeStyle;rounded=0;orthogonalLoop=1;jettySize=auto;html=1;exitX=0.75;exitY=1;exitDx=0;exitDy=0;entryX=0.5;entryY=0;entryDx=0;entryDy=0;" edge="1" parent="1" source="en9qmG7H2PPP-TzCxMRi-1" target="en9qmG7H2PPP-TzCxMRi-5">
          <mxGeometry relative="1" as="geometry" />
        </mxCell>
        <mxCell id="en9qmG7H2PPP-TzCxMRi-2" value="PingID" style="rounded=0;whiteSpace=wrap;html=1;fillColor=#e1d5e7;strokeColor=#9673a6;" vertex="1" parent="1">
          <mxGeometry x="200" y="240" width="120" height="80" as="geometry" />
        </mxCell>
        <mxCell id="en9qmG7H2PPP-TzCxMRi-27" style="edgeStyle=orthogonalEdgeStyle;rounded=0;orthogonalLoop=1;jettySize=auto;html=1;entryX=1;entryY=0.5;entryDx=0;entryDy=0;" edge="1" parent="1" source="en9qmG7H2PPP-TzCxMRi-3" target="en9qmG7H2PPP-TzCxMRi-26">
          <mxGeometry relative="1" as="geometry">
            <Array as="points">
              <mxPoint x="940" y="280" />
              <mxPoint x="940" y="80" />
            </Array>
          </mxGeometry>
        </mxCell>
        <mxCell id="en9qmG7H2PPP-TzCxMRi-3" value="ServiceNow" style="rounded=0;whiteSpace=wrap;html=1;fillColor=#e1d5e7;strokeColor=#9673a6;" vertex="1" parent="1">
          <mxGeometry x="760" y="240" width="120" height="80" as="geometry" />
        </mxCell>
        <mxCell id="en9qmG7H2PPP-TzCxMRi-31" style="edgeStyle=orthogonalEdgeStyle;rounded=0;orthogonalLoop=1;jettySize=auto;html=1;entryX=0.5;entryY=1;entryDx=0;entryDy=0;" edge="1" parent="1" source="en9qmG7H2PPP-TzCxMRi-4" target="en9qmG7H2PPP-TzCxMRi-1">
          <mxGeometry relative="1" as="geometry">
            <Array as="points">
              <mxPoint x="540" y="480" />
            </Array>
          </mxGeometry>
        </mxCell>
        <mxCell id="en9qmG7H2PPP-TzCxMRi-4" value="AWS DynamoDB" style="rounded=0;whiteSpace=wrap;html=1;fillColor=#ffe6cc;strokeColor=#d79b00;" vertex="1" parent="1">
          <mxGeometry x="360" y="440" width="120" height="80" as="geometry" />
        </mxCell>
        <mxCell id="en9qmG7H2PPP-TzCxMRi-5" value="AWS S3" style="rounded=0;whiteSpace=wrap;html=1;fillColor=#ffe6cc;strokeColor=#d79b00;" vertex="1" parent="1">
          <mxGeometry x="600" y="440" width="120" height="80" as="geometry" />
        </mxCell>
        <mxCell id="en9qmG7H2PPP-TzCxMRi-6" value="" style="shape=image;verticalLabelPosition=bottom;labelBackgroundColor=default;verticalAlign=top;aspect=fixed;imageAspect=0;image=data:image/png,iVBORw0KGgoAAAANSUhEUgAAAQIAAACaCAYAAABCDUbKAAAEDmlDQ1BrQ0dDb2xvclNwYWNlR2VuZXJpY1JHQgAAOI2NVV1oHFUUPpu5syskzoPUpqaSDv41lLRsUtGE2uj+ZbNt3CyTbLRBkMns3Z1pJjPj/KRpKT4UQRDBqOCT4P9bwSchaqvtiy2itFCiBIMo+ND6R6HSFwnruTOzu5O4a73L3PnmnO9+595z7t4LkLgsW5beJQIsGq4t5dPis8fmxMQ6dMF90A190C0rjpUqlSYBG+PCv9rt7yDG3tf2t/f/Z+uuUEcBiN2F2Kw4yiLiZQD+FcWyXYAEQfvICddi+AnEO2ycIOISw7UAVxieD/Cyz5mRMohfRSwoqoz+xNuIB+cj9loEB3Pw2448NaitKSLLRck2q5pOI9O9g/t/tkXda8Tbg0+PszB9FN8DuPaXKnKW4YcQn1Xk3HSIry5ps8UQ/2W5aQnxIwBdu7yFcgrxPsRjVXu8HOh0qao30cArp9SZZxDfg3h1wTzKxu5E/LUxX5wKdX5SnAzmDx4A4OIqLbB69yMesE1pKojLjVdoNsfyiPi45hZmAn3uLWdpOtfQOaVmikEs7ovj8hFWpz7EV6mel0L9Xy23FMYlPYZenAx0yDB1/PX6dledmQjikjkXCxqMJS9WtfFCyH9XtSekEF+2dH+P4tzITduTygGfv58a5VCTH5PtXD7EFZiNyUDBhHnsFTBgE0SQIA9pfFtgo6cKGuhooeilaKH41eDs38Ip+f4At1Rq/sjr6NEwQqb/I/DQqsLvaFUjvAx+eWirddAJZnAj1DFJL0mSg/gcIpPkMBkhoyCSJ8lTZIxk0TpKDjXHliJzZPO50dR5ASNSnzeLvIvod0HG/mdkmOC0z8VKnzcQ2M/Yz2vKldduXjp9bleLu0ZWn7vWc+l0JGcaai10yNrUnXLP/8Jf59ewX+c3Wgz+B34Df+vbVrc16zTMVgp9um9bxEfzPU5kPqUtVWxhs6OiWTVW+gIfywB9uXi7CGcGW/zk98k/kmvJ95IfJn/j3uQ+4c5zn3Kfcd+AyF3gLnJfcl9xH3OfR2rUee80a+6vo7EK5mmXUdyfQlrYLTwoZIU9wsPCZEtP6BWGhAlhL3p2N6sTjRdduwbHsG9kq32sgBepc+xurLPW4T9URpYGJ3ym4+8zA05u44QjST8ZIoVtu3qE7fWmdn5LPdqvgcZz8Ww8BWJ8X3w0PhQ/wnCDGd+LvlHs8dRy6bLLDuKMaZ20tZrqisPJ5ONiCq8yKhYM5cCgKOu66Lsc0aYOtZdo5QCwezI4wm9J/v0X23mlZXOfBjj8Jzv3WrY5D+CsA9D7aMs2gGfjve8ArD6mePZSeCfEYt8CONWDw8FXTxrPqx/r9Vt4biXeANh8vV7/+/16ffMD1N8AuKD/A/8leAvFY9bLAAAAbGVYSWZNTQAqAAAACAAEARoABQAAAAEAAAA+ARsABQAAAAEAAABGASgAAwAAAAEAAgAAh2kABAAAAAEAAABOAAAAAAAAAJAAAAABAAAAkAAAAAEAAqACAAQAAAABAAABAqADAAQAAAABAAAAmgAAAACJFo+cAAAACXBIWXMAABYlAAAWJQFJUiTwAAAw0klEQVR4Ae1dB5gURdMu0h0553hkRCRKUECSBAEJgqIgiPBLBgEBETCAiCgoKiKSDJ8ookRBRAQEEZWccw4SheMIR2b+fnupvaGZ3ZnZvT2Ou67n2e1UVd1dM1PTXd1dk8QQQBq0BLQEErUEkibq3uvOawloCUgJaEWgbwQtAS0B0opA3wRaAloCWhHoe0BLQEuAtCLQN4GWgJaAVgT6HtAS0BIQEtA2An0baAloCWhFoO8BLQEtAT0i0PeAloCWgJCAnhro20BLQEtAKwJ9D2gJaAnoEYG+B7QEtASEBPTUQN8GWgJaAloR6HtAS0BLQI8I9D2gJaAlICSgpwb6NtAS0BKg5PFZBtevX6cVK1bQhg0baMeOHbR79246duwYXbp0ia5cuUJXr14l4GjQEohPEkiWLBmFh4dTqlSp5C9r1qxUtGhReuCBB+ihhx6i2rVrU/r06eNTkylJfPNQtGfPHvrmm29o6dKltHnzZrpw4QKlSZOGsmXLRjlz5qTs2bNT6tSp5Q/5EHqSJEmkUOFsCXFfTpe4LK7w1Stt1z4V3y4d1/2xa7/aHrX9dvQqvl1arc+Of1zh37p1iy5fvkzR0dHyd+bMGTpx4gSdOnWKzp07R2FhYVSiRAmqUaMGPf3001S9enW7roa8PF4oAjzsX375Jf3vf/+j9evXS20JDVq2bFmqXLky5cuXL+SCQAVubyS1UcHSq/ziOh1s+4Olj+v+qvUF234n9FAKa9eulfc5RrlQDhEREfTcc89R165d4+xeV/t+TxUBtOPw4cNpypQpcpj/4IMPUv369alq1aqUPHncz1pC/cZQhR/f0rr/ntEk5ABw8mAzjhN8yVT527p1K/3888+0Zs0a+Qw0adKE3nnnHTmVUFBDmrwnigDz+9dff50mTpwohV2vXj1q06YNZciQIaSdVZnzRUQIUB+EuMZX6wt1Wvf/zqnkvbz+sHXNmzePZsyYQZGRkfTkk0/SJ598Qrlz5w71bSD5x7kimD9/PnXr1o3Onj1LjRs3ptatW3sNJ3Y3ploerITUC2/HP7bx7fjZlev+BycBt/KNbXwrfrAv/PTTT/T9999Lg/jgwYOpf//+XjtYcD32TR1nigCW/nbt2tGsWbPo4Ycfpn79+lGuXLl8t0yUQChJkyaVIRA5jjAUEGx9Kr3aRrftV/m5pVfrt0sHW59Kr9bntv0qP7f0av126WDrU+nV+ty0H4bG8ePH0y+//CJXG2bOnElFihRRWcZaOk4UAaz/zZs3JxhKevfuTXXq1Im1DmhGWgIJWQK7du2it99+m6KiouRU+plnnglJd0OuCKZOnUpdunSRcx0YBs1zHnVopPYwvg/V1faqabftD5bebX0qvno97MrV9qpplV4tV+tTy93SB4uvtkflp5ar7VXTKr1abseP6bEUOWLECFq+fDn17NmTPvroI5VV0OmQKoKPP/5Yzm+wgWLQoEF3rQRwRxECVMG4LVel4ZafSh/b9QfL364/Kn87fLVcpdf9929MVOWjyi+25fvjjz/SZ599Rk899RRNmzYtVu0GIVMEb7zxhlwahDEQWswKVEGpglXLVR6xja/yU+tT26Pi25UHy0+lt6vfLb7KT6W3659debD8VHq1vWr9bvFVfiq9yl/FtysPlh/oFy9eLJcXH3vsMWlUTJEihco2oHRIFMH7779PAwcOlFOC9u3bezWXneDseuCW3i2+Xf125Xb12ZUzf9hSsL4MY2qxYsU4+651bfXG8yLejjitT6ULNG1XH5f/9ddfcrdomTJlvH1yUifTIwTcr/132n5VJtz/f/75h7CaULNmTakMVLxA0rGuCL777jt64YUXqG3bttSjRw+v5R+NU62qqhVVLbfrkEqv4gfLzy29Wr/aPpWfr/IFCxbIfRaYUr333nsqW29apfcW3I6o9anlalrl55beCb9r167JDWMlS5aUW8m5DtByHKETUNur0gTLzy29Wr/aPpWfXbnKz5xeuXIlvfrqq/Tiiy/K1QVzWSDxWN2+hwNCL730ktwdiOkANBjOArAGRMcBHPqKc7mdxgc9+DOwxuT6uG7GUctV/ihnGvDkdnCo4nO9vkI7fuY6zHHUA0CIujktM5U/7huy1f5xXxhHLVf7Y9deFV9pyl1JX/zMiCxb5HGcQyf1cd9Ar/Yvvvaf+2fusznO5f76j6kB9hdgF2LBggVpwIABYBEwxJoiwPLGs88+K9c8sdyBTuAH4DCQVrqhZVwO1bo5n0Mn5WqbzbRqmZpmXA7Vcl9pMz7fFL5wzflMxyHKrOJWeWZcc7mZvxlHzbdKMx8OgWN+cJ30zUxrVYc5j3E5RJlV3CrPjGsuN/M346j5Vmnmw6EVjl2eP9oWLVrQkSNH6K233pIHmHAuJ1CINUUAoyCOBY8ePdp7sXGheTiEBnIcIcCuXCKZ/uzwgy03VSWjKj+1XE277Z/Kn+mRD8BNwHGkrfCRP3nyZHlcGwdYcEKTt2wzP4TYyQlLM+bnFy9elAe6gIeTnhhe8k2EtyrOfmB0p/JDXQCcDMXOt169ehE2umzcuJFu3LhBOCuC4SpvFUd7gYvdpNu3b6f8+fPT888/72Ei/nGehNuITI4jtAKr/nMe8DmOEKDysyuXRKY/Fd9UZBl1W5/KX6VXK7HC79u3rzymj/0FsCulS5dOJXOUjhVFgB1QixYtIiwX4riwGcxvAI5zCDxzHDcGbkQ+cKQO9VR8puUwNsrBgwEPIv+QZ9UexkXI7eDQnGeO+yrn/uOCA1A358kM8WemBR6MsevWrZMPAXae7du3j0aOHCkfTihlANoNe822bdsoR44c8kHFw4mtrLj5oBDAF3i++G3atIlGjRol24RNLn///bd8uDESxNFw7BzF4RnUAd4AKIE+ffoQLNuFChWinTt3yg1lslD8oX/m/nBfE/v1d9v/MWPGUMuWLeW0HAo6EPDccYFQ3qbBCUIcIGrUqBHVqlVLXlzcoFY/XHjk88OlhmCJPAaOq3icZl5cF/I5j3HMIZc5xTfTOomr/LkeDsGDcaz4qf03y8EK/4cffpBKAAoABsbZs2fLsHDhwrRw4UKCQQl0OLyCB7RmzZpSYc+ZM4fGjh3rfQiZ9/Tp07388FADD3zBD1tdmR/wAVAiGI38/vvvki+UzMGDB6UfCYwOcV/AQccXX3whRw6//vqrdxWE6zSH4Mm8zXEzjjnOsnQqX7f45rqcxFX+3C4OwYNxrPiZ+2yOW+GaeWF1CfYC7DPASC4QCFoRYGiCG+K1116TF9HcUXNnEEcZhyycYEKzMMxxXzzNOOY445vzEAdwyO3mkGnMYbD0zIvrZH6cr4Z4owMwtC9QoICUb+bMmaWtBvl4M4Nm1apV8q08bNgw6RQDfKEUqlWrBjTvdcPpNwBGBeAHyJQpE7Vq1UrG+U3P7WvQoIFcAUAdqLdSpUoSD1MKbCvHaAHON8qVKyfzMWzFDcug9sdtmuWD0Bz3xceMY44zvjkPcQCHiAOPQ6Yxh8HSm3k5iZvrwxb+0qVLyyV7jOzcQlBTA7xlvv32W3lxcSPYDZ3dNi6u8SFY7gPq5rgvwbrFd9of8GXADeEL4PUGgDf+uHHjvGjsvu3o0aPy5j18+LB8oPHGNgNuHLzN+YZifhgtYAcbg5kfhvLcvoiICMmf01myZJEkWCKETQAATzzm4X/FihXveKAkUjz5Qz/4mqNJHI/r6x+oOGA0hNLGvYCpoBsIShFg9yCGJdg3AMBNC6HxzasKUhW0XUODpXfLH/h8UyNu1x+3+E77z21AyG3gulgmSGMPOoDf3jJx+6+gWFLifPh/gHs3vi6Mx3NR1IMf84NRj9vAuMzPzAOu4sx4/MAjDzYDANxyMQ5C2Avgyw9xMy+uxxxyXxECQMN5ZrxA48yL+XMdzI9lz+0MFt9t+9X67OhhrK1bty598MEH1L17d6/cuT/+woAVwaFDh+S8EWcI+AZQK4IA2RKKMo4jBARbLpkE8afWr7Jy216VXuXvlB/Lkx8W8AGo9HjDnz9/XhqJaovNRww4worRGgx0eNhhwMVuRTycZqvy/v37JQn44wFlfp07d5YnRLk+rDKAH2wFwOX2MR3wAGgvAOVwMwfAqIS3wQIP0wW0A7hoG9cBXI4zP/DnPKty5AUDKn+VF9cdaHtU/m752dGr7UX65ZdfpoYNG9LXX38tp3hWOFZ5vsedVtimPMw34YkVvtZw4fFDwzlEHMAh4ijjEHHcDBya48gz40oiC3rGCzQ014k4gEPEzW1AXMU35yEeW/23aoNVe+ARFwAjH+rnH5Qz9nRgFQd5cI4J4x2s/owDox5WegCoD79SpUrJNFuegQtgfjj1xnnIZzrmaW43fE5AHjAyQlkBgAevVAzAR56ZD+dxPRwyPYfID/bHdXH94I04A9fN9aj4yOc8xGPr+nN9aAfiDBzncqsQvj5h+8G1dgMBjQiwZgwLNdyLsbZHpSxEDq0a4q9MxWdcDs11qLiBpMGXh1+g5zhCBnPdnOcrZFwOrfD8lTE+42DNH6sxKuAND42P8xy//fabPIgCgyGMdatXr5bzfuwnGDJkiLwmr7zyisSDPQfLgHjzw0ceD99xA+MHgy8OteDXoUMHn/y4fQg5jjZyHLxgL4Anqk8//ZTghw/eeg8cOCDvG+4P43NaDbmcQ5Sb4yq+2zR48TUHLcfv9fXnfnBfOUS+Oc54aogRHV4EcJIKhewEAlIE8DIEz8PYHMJayqoydSik4uCGYRy1DGkuQ2gFKn0g+Gg/8+c490nlp9Zn1SZznkpvLkPcFz+eu+NNiiG5CnjIcEPAtwOWELFWD6MffgDM8XHwC3N4AJQCVgSwDRVGPBgPceAH/vah0BnPjh+mFegT34wIWVaoh+Ocj/rQB9SNPQ3oF6zbUF6MwzICvQpchtAKVPkFgs/XHPw5zv1Q+an1WbXJnKfSm8sQt+Pnlp7xH330UcqbNy9NmjTJsSII6NAR3lL40AjWms2galRcbM4z43Gcy1gDq/h25cyHQzt8u3Lmw+G9xndTP+be2OiDhzlPnjyyCyxPrN9jFAcP0RjBgS8A50IwdMdUQPWt748f+FqBr/YCF8uJBYUB0/xhD1/4zN+uXG2DHb5duVt+ocYPpr1YQYACPn78uFdxq+01p10rAtxQWFvGcBNDEL7ZzEzvVZzb4utGUtsVany1vlCnffWnU6dO8qbA0J99Q2DaAfsOrPrYmpoyZUqv0sYNaAW++PvCt+IRyjy37Qs1fij7asXb3B98MwEG5D/++OMuJW9F63pq8Oeff8q96thMwkNYZmynwezKmY+v0C29W3xf9TrNt6vPrtyuHrf0jN9ebBCCYfDdd9+VOwExKsCIDiGG7Dw1sKvfrpzrQwgw35hI25UDxx+4pXeL769uJ2V29dmV29Xhhh6GX2z9xg5TdbRnVY9rRYBhJoxNVh5VceEB5pAbj3yOIwTY3SgSyfRn5mtFb0KVUbU+plHxOO22PUzHoV371Pa4rc+OP7eDQ64PR1aXLFkizxbAjoB9BXAgCyNezZo1Gd319fAS3o7YtY/bgxAQV/3n+rhOWbnFn9v2qCziW//Lly8v/Ryq7bRKu54a4CtEGTNmlKfWrBia89QLby5D3E7warlKr6bV+lR6t+Uqf5WfWq6m1frUcpWfiq+Wq/Rq2o7ebbnKP9j22PGza59Kr6bt6N2Wq/zvt/5PmDBBHkCDvQdt9weuRwTYhIKdhLB4atAS0BKIvxLAdm6s7uFEqtUI3txyV4oAW1BxoAT7x6FhVA0ZrMY1N8wqblefFY05L1h6My/E7fjZlav87NLB8guWXm2fHT+7cpWfXTpYfsHSq+2z42dXrvKzS7vlhy3HoMGKTawqAliXsVYJQwRGBHjwOUQnOG4eLaAhDBznkPPdhCqtOY04KyMrnk7aa0XnK88JP7V94GXO88XbV75Ka04jrvvvcUFuJT8n18uKzleeE37q9QEvc54v3r7yVVpzGnHz9ce+D2w+w94RuED3B65GBHv27JErBcWLF/duHjEzVxtiLkOcG4kwNkCtz45/XOOrfbRrn4pvl47r/ti1X22P2n47ehXfLq3WZ8c/rvHV9tu1T8W3SzvpDw4F8pkSf/xcKQI4IcEpNvO2YpU5GsegdtxqxMC4gYbm+jjOoRVPcxnHOVTby/m+Qjv+Kj/d/5hRpJXsAsnjawNajnNoxc9cxnEO1evF+b5CO/4qv3tx/bGBi896WLWX81wpAhge4HGGh/4QEHcWDDmO8H4Et/1xix/fZeK2P27xdf/jXgLYI8JnSvzV7koR7N27V65Bd+3a1R9PXaYloCUQTySA6Txe3nbgShGcPn1a7lmfMWOGHV9driWgJRAPJHDz5k15JMCuKa4UAZYgcBoOWkaDloCWQPyXAPb84NyBHehdQXYS0uVaAolAAloRJIKLrLuoJWAnAa0I7CSky7UEEoEEtCJIBBdZd1FLwE4CWhHYSUiXawkkAgloRZAILrLuopaAnQS0IrCTkC7XEkgEEtCKIBFcZN1FLQE7CWhFYCchXa4lkAgkoBVBIrjIuotaAnYS0IrATkK6XEsgEUhAK4JEcJF1F7UE7CSgFYGdhHS5lkAikIBWBIngIusuagnYSUArAjsJ6XItgUQgAa0IEsFF1l3UErCTgFYEdhLS5VoCiUACWhEkgousu6glYCcBrQjsJKTLtQQSgQS0IkgEF1l3UUvATgJaEdhJSJdrCSQCCbjyYpwI5JEgu7hy5Ur68MMPvX3Dh0lSpUpFJUuWpE6dOlGWLFlkWY8ePeiBBx6g7t27e3HjS2Tu3Ln0zTffkC9X+q+//jpdu3aN3nvvPUdNBi68+5YpU8YRvhXSt99+SxMnTqTo6GhCvFixYlZo90WeHhHEk8v0+++/y5sqFF+Jgvv5WbNm0bp166Q7+i1bttDSpUtp0KBB9NBDD9GJEyekFObPn08rVqyIJxK5sxmbNm2SfbgzNyaFtv/yyy8xGTaxcuXK0eTJk22wfBefPXuWXnrpJfldwbx581KOHDl8I98HJVoRxJOLdPjwYercubP8fPWXX34pPx8X20376quvaOfOnbRr1y76999/acyYMXT8+HH6+OOPY7uqeM8P/Q4GDh48SJcvX6bhw4fT7NmzKUOGDMGwu+e0WhHc80twZwPw5doOHTpQiRIl5HDzztLYTWFagO9Y4rPZKkRFRRE+bVe6dGn5tsM04tNPP/WitWrVikaPHk3PPPMMFShQQOJNmTLFcTkQQY+hOd6oderUoc2bN3vp8Xk98M6fPz9Vq1ZNKi9voU0ED2mlSpXkVKJq1aqUJ08eqlWrlref+EQ4hvMYJXXs2FFywwd+27ZtS4ULF5bKGG974ADQFvB75513qGDBgvTII49Qu3btZNnIkSOpb9++Mj5+/HhZhvogk/bt29/xAdJly5ZR48aNKV++fNSoUaM7Rjj//PMP1ahRQ7YVoxVMOeIUxFDUMbzyyiuG+NqRY3yN6FwC4m2NL8fe9RNzduPHH390zsgCU4wwJF8x/bijdNy4cTL/5Zdflvni5jXEAy7jTZo0MYQdwRDKwhg4cKBRtGhRiSumF7Ic9wHaW7x4cQP04gEyhFIxhFJxVP7aa68ZwlZhVK9e3ejVq5eRLVs2Q3y51zh69KghPtppiPm2TIsH0hDKQtYFfF9QtmxZQ0xzZLGY+kh88c0/o27duoaweRjiY6CGUK6yHP1GunLlyoZ44Ixbt24ZQtEZ6dKlM4QyMISiMECLtgHWr18v+SVPntwQSsAQSsUQCkTmtW7d2pg6daoxbdo0mUbZsGHDjHr16sk0y3bjxo1GxowZjdy5cxtCcci6Id/du3cbKEM8IiJClgnlK2nHjh0r6w/mTygso2LFirYsMAR1DFoROBaVa0RfioCVA27yOXPmuOYLAlYEuPGfeOIJeZPihgRv3JxiWiL5siLAg9GwYUMDDyvDH3/8IfEnTZoks6AIxJvPEEY3mRZvNFk+YcIE23LQ4KGrUqUKszeOHTtmpEiRwujSpYu3vWbFJUYFUnF4CZSIlSIQIysvlhjdSPobN27IvEyZMhnCOCrjwtAn2z5q1CgvvjA6yjxhaPUqAigJBu7vzz//LLNGjBhh1K5d2ysPZELGjz/+uCxv06aNgTrFJ8plGiGuKep88sknpSKADBjECMQQIyVOBhw6VQT33aoB5rWRkZHiHk5YsHXrVr8dgoFvwIABJN4aAVu6YeC6cuWKrEe8yUncgARrO4ayZsCqAoxvM2fOJPG2JvHWIm7f1atXvaiYLoiHV6bFiEGGPJxGwlc5+F24cEEaKcXDI+nwJ964cvgeFhZGQlFQzZo1vWVCgRFWP9zAo48+6kWH3MTTJIf74G0G8caXSUwVFixYIOPiQZXhhg0biPlwaKbluFCahDYOHTpU2mFgi8FHg69fvy5R8M1Qoaxkv5CBNvBUCNMA9F0oC2YnbTiwY8AOgRWeUMN9pwj69OkTapncE/5ff/21NDpZVV6oUCEaMmQIvfjii1bFjvNww5kfLn+EmFOLUQChbqwsPP/883ctzYnhtZdFsmTJvHGO+CrHfByQPXt2OZdmfMyrMUfHHF+8uaXSSpkypSzGV33dgvmBt2of87t48aKMoq+s2JCBfiOPAe31BWIYT71796bMmTNLOtgCsKQI5QOA4vO1sgDlmTp16rtkATooXq0IIIlEDHgwsMQHwxXe0nEFWKpbvnw5iamgNOihXqzjAwJ5ICWh6e/BBx+UKexfENMWGceDj30MuXLloqxZsxIMjwsXLqRmzZrJ8iVLlpg4xE6UH1J85RtQv359aTBEHKMEGEdz5syJpC1g5QX7CPCWhzJBf6B4xTRL0sIgitUaBtQNQywMjzAeYsQgbBdSIQAHceCnTZuWSUIa6lWDkIo3MOa4aT755BPat2+f3PATl0oALRZzW3lDYjqCNuCB5E1GwpAXWKdMVMIuQcKYJpUNpjurV68mfL4bDw4UgTBUyk1OwkgpLeuYvqxZs8bEIfgoRguw1P/666+ybrTpjTfekApo8eLF9Nxzz8kyp5uEILMzZ87IdkIZNG/eXE5hMbQH/N///Z8c6WDFAiMtjB4w3cJKBRQ9RgygwX6Szz//nPr370+YymHKEBegFUFcSNlhHXgIsKR24MAB6tmzJ/kbzjpkKdGcKhLGExZ8eaNiAxLeli1atJBvZgxt//77b2/VjI8MLEMCzHnmuFqOXYLCeEkffPCBDDECwYMvjJRSEf3www9yaoC6gYMlNTt5cH1cl2yQj78GDRrItz4eRPQX9WG0gwcWc31MSTAqwfTGHz8ue/PNN0kYAwnLlbAFQCmgDthDYCfA1ApKD4oHy4RiJUj2V6xMyOVi2BhgA4HNBHjINy/X+uhGrGXL9Rin3Pr16yeHiNippiF2JQDDEjalwFAWXwAPBm5kGAJD9WbCmxB9N8/Fzf3HRis8qKGYJ+NhZcMk14mNVhja+7MHMK5VCPsGFIKvDUZQChhlwVjLiov5sLxhJ4mt+wAjLWylxqjLH8TNuMNfC3SZlABu9vgGeAPj7EEoAUN0s1FPrQsbikIFfMbCzF9dQTGXOYljdcIfQMlgs5gVxIW8repFnp4a+JKMztcSSEQS0IogEV1s3VUtAV8S0IrAl2R0vpZAIpKAVgSJ6GLrrmoJ+JKAVgS+JKPztQQSkQS0IkhEF1t3VUvAlwRcKQKsbWLrpAYtAS2B+0MCOKtgPj/hq9Wu9hFgvZe3TPpiqPPvXwmM/d9JWrnac+oOvcBmwXRpUlC9GhmoWd2MYmefs/MOB45cpSwZk1P6dHcfRApEOmZ+MxdG0rxFZ+irDz3nA/zxmzbvLP2+8hxNHFnoLrTNuy7TiLFH78pHRt7cYTR6UAHLMjVz087LVKZE6E8HqvU6TWNLuJPzCq5GBMJxhPcYq9OGaLz7RwKLlkWKnaPHafuOi/K3YdN5miXSLV/cTG1e3uuoIxu2RVOZmmtoz6GY48qOCH0gqfzWb71EM+Z4fCz6IPFmr9l0kWb9dNKbNkf+PXmNps88RqvXRHr7y/3etddzPsCMbxV/8+N/qWXHbVZF8SYPJyudKAJXIwIoAowIcHJK3R4Zb3quGxKUBLLlCKfNS8p5eVy5douavrhTPjTDB+SnIvnDvWVWkRNnrtOFaPdHhq14IU/lN7R3HnqtW25f6K7zPxhejJqL0U4gcPAgnoVAKOOOBlu4cYrVDlyNCLAfHG6gcShGQ+KQQMqwpNS8UVbZ2Y3ibQ9Y9Od5qvH0FipQcRVVfnITTfj+tMzfe/gqvTp0v4x36LOLvp17RsZXb75EdVtvpYhKayT+Fz968FE4afppat1rD42adILK1ttIxaqtpW5DDhAUkBW/r2f9Ry1e2in5Mv1jLT1tKfLoWuo0cD9duBg7iuizqaeoYbsd3roQ6TToIA0afZRQtmTZf3TsaDRVb7GVzkbdpGd77KH3JsaMVs5E3qBqT22mxSs9063neu6hd8Ydo4oNN9HD4ge5RJ2/SR3776MSj62jB2qsk32Pvuw5unxHxQEm4NwEx5ztwJUigKMGAI6nakgcEhCeveinhZ4HumjBlLRs1QVq9OwG8TKIpqeb5xSOMwzq0me7fADSp0lKpR/yeP+pWjkjFcqfkjAXr9VkHR08dIVatcwpTvgRdey1nT7/7pQU4P7Dl2naj8do9McHqHKFjFSieDoaP+UwvfPpMbLit08om5V/n5W0M36JpE69t1PqlMmoS4f8gjYtTfr6CA0TtE7h6PGrtH3flTt+N296XvN7D16h1Ws9TlSY38ZNUbRxywUqVTwVZcuektKlT0H1a2WmFMIcsnZ9FG3b7nFyAnwos5V/R9KR49ckOaZaQ4bvETK7JeRgUJ4cKaiGUGKz5p6galUyUpmH0tOXov1NOmzn6oIK4Y3q1KlTxP4f/DFzPTXA4Rh4vW3atKk/vrrsPpXA2bPXqWlHjwONi5duiKO65+jchRtUv042aRSr12Y7hSVPQtv/qEhpU4v3iDCqlXl8A43+6AC92ikntXkqG307/V/q+GwOqlAqNbXospsM8YJbMbcM5cwq3JoNyCffoO9/cpC6tI7x+PPDF6WoRiWPEin8SBSt23iBsvfNexe/eUti3NQdOHqVnqibneZOKSEs48KQ2TWXGKWIh3GHc58JvV6NGV3wJTu59VHKnsXjgo3z1PCxiumodMm0wo/ADRrSw/lUJW/ulLRmYVkKF+2dviCSNm2JojHvlqDe7T3fRRhTPj31HbyT/tl4iaqUTaNW6yqNU4dY5eMXuD9iV4oAjDDfgAcbDQlTAlev3aTjJzx+DZOLB75WraxUtWIGevn2jbpl63kqXyGzRwncFkHd2pnpg7EH6egJz5vPLJmduy5SuHhjv9gn5uj60SOX6dDRy3T5imcInFy8TatViPHEkzt3aros3pp20P+lnFSvegYaMf4Y7dwTTTt3X6Jjx69Q8WIehWJHj/LB/QpT5XIxdSMvU3rXjwXIHEGpkumkEgDyxm0XJM3sn0/Rr0s8o66o857l+U07o4NWBHDmAhdoOPJsB657DAeOP/30kx1fXX6fSiBXzpS0+ucyflufPt2dt02GdJ63p5U3tehLNylN2uRinpray5PjwpmxzMPQ3rw0Kbyie339eYksIuO/PUXd+++g7FnDqVyZ9NS4flaKOndN0NorEWZXoXRaerK2tbEQbIRDZ0aV4VUx3PcHN0z4VnP9jBljRhoXL3l4F4pILUY0nqVWzOZLPZieCub1b5T11wYug3s3HCN34kvizivKHPyE8OsGN1pw4BDs2W0/1eiieCqBvHlS0arVkXKOyw/v4j/OUI5s4WLOGyZtAmg6W9PzwU6w6Rx99Hp+Sp3KY5KCcXGPWKJLg6mFQ2B+ZvRPJh6hh0qmp7W/lJVTA9gzJkw5Ih5eZ/sdzLys4mEpkxCmR5jPo68Ij4qRTB4xvAeoig/Tk/MXhBHkNmzb6xlZcVoNC0d4+NStnolaN8ksizduj6bx35yiHJhGBQlwxQbXaE7A+ZW4zQ2ulDDcmDdvnhP+GieBSaBDm1x0JvIateq+RxoO+w4/TGtWRQobgmdlIVsmzw38/dz/aNf+K9RR4EddvEXPdNtNy1dfoCk/nKY+A3bQmajr4k1l/8Cq/MzizJM7nE6dvkrrxGrGlt2X6Znuu+n02WtiyhHzMJrx3caLC+PodaFcerxxSPYVqwJnz3nck4NXpoxhdPrUFbk6grd/wQKpadny/wgbmeb/HkX93vC/96KNePizZAqjN9/bT1+J1ZDf/zlPbXvsooWLT1Jhm2Vau74cOnSI4N0JL24n4FoRwJdbhQoVpI83JxVonPtLAupbTm19l9bZqN/LheiXhSeoVrP1NOWrw8JwnIumjCosUUsUTknFi6alD8YdoFGf/0svNM9KbwwsIh+Qmk3XU78hu6l2nexihBAh8ZMk8X8LqvySmnTHkN4FhJPTcHrkibVUusZqOiOUwJMNc9KO7ReEn0BDet0x45v74ivfjNO6aRZq8Hg2+vyLQ7Kve/dHU43qnjc38BqKKcVNMVN4vstWYdy7SG8PKEDZxDSldact9FS7TVSnRlZKk8oz5Dfz5Xi2zCnohykPSk/HL3bfRo+32CB8JSalyWMeuMMGw/huQniHhss0fErOCbjyWcgMxdduSHzKSWocuJ7WkPgkgAcN6/zYYCQt9ooITomNRZkzJPe+9TGs3it2G0bkC/cayxQSv0mVnxn50L9XpYEvtrY0m3kjjv0A10X75aqHUgiD52WxhJo5Q8wDj/ZkESMjuaqi4PtKYqdjCjFCslut8EWv5sM2AIev3333nVpkmQ5IEeCDDPD3jo9uwOOqBi0BLYH4IwGs6sGTMtyyh3REgC7DzTQ2FsHLrQYtAS2B+CMBuE5fsWIFwU7gFPxP0Pxwwccg4JZ5+vTpfrB0kVMJzP7tHHUdfJBO/hdjjHJKq/G0BFgC2FI8e/Zs+V0MznMSBjQ1YMYYduBrLPhQpIbgJIB9+TA6pU+TjF5om5de75mHYEzSoCXgRgLdunWTH689cuSIq28jBDwiQOPwdRfMR2bMmOGmrRrXjwTOiw04Yz8/RMWqrKZ+Iw5RpDjMokFLwIkE8PBPnTqVOnfu7EoJgHdQIwIwwKe1oQxgK+Av1yJfgzsJ8IhApcqUIQV17piXBnXNQ+nSxlimVTyd1hII5lkMWhFg00KpUqWoa9eud302OxSXBktWOL0FyJ09jDKJZRuc7jp/++hp1kzJ5a6sE2KujWUfQHrxAOXLFSaPih4/5dkPnyo8qTgdF04Xo28RlnsAScXi8gNiHfwqlsbEyTNAEpFX9PYSGU6pGbe3kBbIEy6Xh2KrPYtWnJeHTWSlFn9ZxcaTbp3zU/+XcrlalrJgdU+y3h57jLA9d/greR3Vb/ZK5IhAQcJy5avvHaa/VkVRRIFU9N0nRRWMhJXENxXxzUZ8w7Fly5auO+d6i7FaAz5JhT0FH374IbVq1YrKly+vosRqeofYmhp9xbNHGw8uFAGOpp4843noC4t1amzPPHL8Ou0XLrMAObKIve5CEcAQt3WP5wFPLbaPQhFERt3w5mGeVCwinK6IXWKMB/p84rgoNr5sEUdqGVBv2tRhtFXsaLt6e8881oGRv0cokdORniE91tnRnsPHhB+Hox4llDOrpz1QSlzP8dN3H9jhuhCeO39NHqo5Ldbn06YOfh+6mXdcxOcvOk03xMPpRBHAK1GNJuvp97nl5QnGQNoHPwc4CFXt0SxUpJBnK28gfO4HmvPnz8uvZtesWTMgJYA+Bj0iABN8vBFfto2MjJRLitiCrMGdBHxNDeA3sGnjnDRc7ForKUYr9yvAgQkUwboFZW278MsfUdSw1UZa+1vFgBVBP7H1+fMvDlPkrqqWG55sG3EfIcAlAL6kjM+x4/PsgUBQxkKuEB9vnDlzplQE7du352wdBiEBbPVt/EQOWr+kEs2aUPy+VgKqGDAVg+ee7346S7VabZOei+oLPwc7xNTLyisR6P15OYKTk/Z990pPP0WrrqUn2u6gH4WvxWhx5qBWqy1y3z8OA/UaepAqNNxIecv9Q2XqbvA6R+H2ffTVSekroVj1tXIpd/eBmENDKINnoYLCyxK8FuFsQ3yAcePG0fz58wm7fQNVAuhHrCgCMIKfgvHjx0uF8NZbbyFLQ4ASwP72NYsq0rwvSsRrD7kBdk/aZeC5p2P3reJEYjJq3jiH9Dr0bOcdll6J7LwcYWr49bR/6eeFpyhXrnCKyJ9KnIxNRelSJ6MGtbPKaWHHAftoypeH6ZGKmajDC3mEww6Dur6yg3DaD/C+cDHW57Wd8gjz001z0vyFJ6ltL4+DFjgpRVkGMe1r0Sw7bRBeih5rvJ6wLfheAuwC2NnbpUsXat68eXBNEY5IYxXefvttI6k4UC40VKzyTejMxNTAqPPsFuOv9RcTZFcrNd5olH9ig+zb1t3RYuP+MqPzawe8fe019IDMuyEO9C9Yfk7G1265JMuf6rzLSJVvuSHsKF78ak9tMQpWXiXT/d49LPF/+zPKW/7ysENGjlJ/yfQt4VSgacedxhsfHfWW/7nugqQR/hNlXo6H/jZadtnlLZ/9W6RR+vH1xsYdl4wMRf4wqrfY7C1DO5LnWWb0fOuANy+uI+vXrzcyZMhgNGjQwED/goWgjYWqGsL5A6xn9urVS373HgZEDfYSaNUo5ky6PXbCwKjycIxnoIi8nm8D4ACPCk68HMGWUv22qzOVHh63Z08qRnMWi6PBwnawS5wi3LrV4x3omhgZHBNG25PiOHO9mpm8pM0ez0jNHi8nfRniGPWJE8ItWtsYX4Jw17ZDeF+6F7Bt2za5QlCkSBG5izA2PIrHuiKAYCZMmECwZLZr107aDTB00eBfAuzkwz9WwirFLkoGYWbyCU68HKUXXpDgB9AX1H9+B/229DSVKJaWSpdKR88/m4uGj9on0U+f9azwpAy/mx5ehgE5cqS8w8tSm9b5qVCBuF+9WbVqFTVq1Eg6BVq0aFGs7d2JNRuBlJbpb9q0adSxY0fq3r07iemCqURHtQScSYC9EsHL0cUL16SXo4kjIgi/CqXTUHrh4ciJlyPYGKAEBvYtSDuWV6Dp44oJP4Uev4Y3xYgAS8Ywzm7a6rEXoHVrt0RLo+Kx23aAzMLFGNf92bACFB6WhHJmi9st4AsWLKB69epRsWLF6K+//qLMmWN8IziTqG+skCkCVPnZZ5/R4MGDadiwYXIHIj62oEFLwE4CqleiYL0c5cqWXDoI2SIMg9io9Jv4LkPPV3fLZlwSe0ZSCWcgTYRDkyn/O0LDhSt0eFLq89Z+ChObzpqKKUKjBjlo8dKTNFh8zwAK4qWB++jTCQcpVxwqgkGDBlGzZs2oWrVqtGzZMkqTJjgPx3ddg2CNDE7o58yZYwjtZRQsWNAQnlWdkGicBCYBGAsffmKj7NX2vZeloW7mwrPeXn781QmZd+HSTQO/4tXXynTH/nslDgx9aQqukHkZi/5pNGq/wzgXdUOWwViYucRKLy9E+rwdYyxEGvQwHsJImTpiudF76CEjT7l/jBbCEAk4IQyAMNaiHL+KDTdKoyXKTv53zWjw/DYjSS5PWUTF1XcYHoETKhCnCY0aNWoY4eHhxtChQ0NVjfQWGzLmZsYHDx40hMcU2SFhMzDExxnNxTquJXCXBPAAXr8eYxHHisLOfZcN8eGQu3CdZDC9madKB+Xy78mrarZMQ0EdOHLFsiwUmWPGjDEyZsxoCCdAxtKlS0NRhZenWDeNO8Ayx8iRIw3xDUVDbH4wJk+eHCtLH3HXA12TlkDoJYCHXngYMsTnzI0OHToYwvAe8krjVBFwb4QrdEOclDKEv3U5XRCrDIb4IgsX61BLIFFKQKwCGFWqVMH6qRw9C3fkcSaHkBoL7zJI3M7AVkh8JGXdunXy5GKPHj3kcghWGLBGqkFLILFIAN8mxKpaiRIl5IrA9evX5acCxIYheX4nruQQK4eOgm3szp075UdTZs2aRSdPnqSSJUuKT23Vkpsm4AVJ+zkIVsKaPr5IQLziCXsBcD5ATAHEtyXXSycidevWlUvt+G7IvYB4oQi44xDS3Llz6fvvv5enqY4ePSo/poLPOhcuXFh+ww2hMKCIfd8Z5C8sLIzJdaglEC8kgNO4UVFR8oeNdXAiipcdfHwifu7cOfE9hixUsWJFatKkCb3wwgvyPr+XjY9XikAVBASHTRQ4XgkPSAcOHKAzZ84Q3Klr0BK4HyQglv3kiwuH8ooWLSpHu3j7QwnEJ4jXisCXoPCpZ2hV/K5du7cnwHy1UecnXgmIQ3fy4cfI9X6Z1t6XiiDx3mK651oCoZHAPVk1CE1XNFctAS2BQCWgFUGgktN0WgIJSAJaESSgi6m7oiUQqAS0IghUcppOSyABSUArggR0MXVXtAQClYBWBIFKTtNpCSQgCWhFkIAupu6KlkCgEtCKIFDJaTotgQQkAa0IEtDF1F3REghUAloRBCo5TaclkIAkoBVBArqYuitaAoFKQCuCQCWn6bQEEpAEtCJIQBdTd0VLIFAJaEUQqOQ0nZZAApKAVgQJ6GLqrmgJBCoBrQgClZym0xJIQBLQiiABXUzdFS2BQCWgFUGgktN0WgIJSAJaESSgi6m7oiUQqAT+H7a+Hds3lkJQAAAAAElFTkSuQmCC;" vertex="1" parent="1">
          <mxGeometry x="760" y="560" width="150.78" height="90" as="geometry" />
        </mxCell>
        <mxCell id="en9qmG7H2PPP-TzCxMRi-13" value="" style="endArrow=classic;html=1;rounded=0;entryX=1;entryY=0.5;entryDx=0;entryDy=0;exitX=0;exitY=0.5;exitDx=0;exitDy=0;" edge="1" parent="1" source="en9qmG7H2PPP-TzCxMRi-1" target="en9qmG7H2PPP-TzCxMRi-2">
          <mxGeometry relative="1" as="geometry">
            <mxPoint x="280" y="390" as="sourcePoint" />
            <mxPoint x="380" y="390" as="targetPoint" />
          </mxGeometry>
        </mxCell>
        <mxCell id="en9qmG7H2PPP-TzCxMRi-14" value="SSO Redirect" style="edgeLabel;resizable=0;html=1;align=center;verticalAlign=middle;" connectable="0" vertex="1" parent="en9qmG7H2PPP-TzCxMRi-13">
          <mxGeometry relative="1" as="geometry" />
        </mxCell>
        <mxCell id="en9qmG7H2PPP-TzCxMRi-15" value="" style="endArrow=classic;html=1;rounded=0;entryX=0;entryY=0.5;entryDx=0;entryDy=0;" edge="1" parent="1" target="en9qmG7H2PPP-TzCxMRi-3">
          <mxGeometry relative="1" as="geometry">
            <mxPoint x="640" y="280" as="sourcePoint" />
            <mxPoint x="740" y="280" as="targetPoint" />
          </mxGeometry>
        </mxCell>
        <mxCell id="en9qmG7H2PPP-TzCxMRi-16" value="Search Ticket" style="edgeLabel;resizable=0;html=1;align=center;verticalAlign=middle;" connectable="0" vertex="1" parent="en9qmG7H2PPP-TzCxMRi-15">
          <mxGeometry relative="1" as="geometry" />
        </mxCell>
        <mxCell id="en9qmG7H2PPP-TzCxMRi-20" value="" style="endArrow=classic;html=1;rounded=0;entryX=0.75;entryY=0;entryDx=0;entryDy=0;exitX=0.5;exitY=0;exitDx=0;exitDy=0;" edge="1" parent="1" source="en9qmG7H2PPP-TzCxMRi-3" target="en9qmG7H2PPP-TzCxMRi-1">
          <mxGeometry relative="1" as="geometry">
            <mxPoint x="720" y="160" as="sourcePoint" />
            <mxPoint x="880" y="160" as="targetPoint" />
            <Array as="points">
              <mxPoint x="820" y="160" />
              <mxPoint x="590" y="160" />
            </Array>
          </mxGeometry>
        </mxCell>
        <mxCell id="en9qmG7H2PPP-TzCxMRi-21" value="Trigger" style="edgeLabel;resizable=0;html=1;align=center;verticalAlign=middle;" connectable="0" vertex="1" parent="en9qmG7H2PPP-TzCxMRi-20">
          <mxGeometry relative="1" as="geometry" />
        </mxCell>
        <mxCell id="en9qmG7H2PPP-TzCxMRi-22" value="OutCome-Webhook" style="edgeLabel;resizable=0;html=1;align=left;verticalAlign=bottom;" connectable="0" vertex="1" parent="en9qmG7H2PPP-TzCxMRi-20">
          <mxGeometry x="-1" relative="1" as="geometry" />
        </mxCell>
        <mxCell id="en9qmG7H2PPP-TzCxMRi-26" value="RunDECK" style="rounded=0;whiteSpace=wrap;html=1;fillColor=#e1d5e7;strokeColor=#9673a6;" vertex="1" parent="1">
          <mxGeometry x="760" y="40" width="120" height="80" as="geometry" />
        </mxCell>
        <mxCell id="en9qmG7H2PPP-TzCxMRi-28" value="Run IaC" style="text;html=1;align=center;verticalAlign=middle;resizable=0;points=[];autosize=1;strokeColor=none;fillColor=none;" vertex="1" parent="1">
          <mxGeometry x="882" y="277" width="70" height="30" as="geometry" />
        </mxCell>
        <mxCell id="en9qmG7H2PPP-TzCxMRi-37" value="Query Result" style="text;html=1;align=center;verticalAlign=middle;resizable=0;points=[];autosize=1;strokeColor=none;fillColor=none;" vertex="1" parent="1">
          <mxGeometry x="615" y="50" width="90" height="30" as="geometry" />
        </mxCell>
        <mxCell id="en9qmG7H2PPP-TzCxMRi-38" value="To-Be System Context Diagram" style="text;html=1;align=center;verticalAlign=middle;resizable=0;points=[];autosize=1;strokeColor=none;fillColor=none;" vertex="1" parent="1">
          <mxGeometry x="492" y="18" width="186" height="26" as="geometry" />
        </mxCell>
      </root>
    </mxGraphModel>
  </diagram>
  <diagram id="eYMzyFgRQQpnDtmEMsNQ" name="BPD">
    <mxGraphModel dx="899" dy="741" grid="1" gridSize="10" guides="1" tooltips="1" connect="1" arrows="1" fold="1" page="1" pageScale="1" pageWidth="1169" pageHeight="827" math="0" shadow="0">
      <root>
        <mxCell id="0" />
        <mxCell id="1" parent="0" />
        <mxCell id="CZpamqKngdFFSSyl5rh1-1" value="Current State - Build a File Integration Platform (SFTP)" style="swimlane;childLayout=stackLayout;resizeParent=1;resizeParentMax=0;horizontal=1;startSize=20;horizontalStack=0;html=1;" vertex="1" parent="1">
          <mxGeometry x="40" y="40" width="830" height="380" as="geometry">
            <mxRectangle x="40" y="40" width="350" height="30" as="alternateBounds" />
          </mxGeometry>
        </mxCell>
        <mxCell id="CZpamqKngdFFSSyl5rh1-2" value="Lane 1" style="swimlane;startSize=20;horizontal=0;html=1;" vertex="1" parent="CZpamqKngdFFSSyl5rh1-1">
          <mxGeometry y="20" width="830" height="120" as="geometry" />
        </mxCell>
        <mxCell id="CZpamqKngdFFSSyl5rh1-3" value="Lane 2" style="swimlane;startSize=20;horizontal=0;html=1;" vertex="1" parent="CZpamqKngdFFSSyl5rh1-1">
          <mxGeometry y="140" width="830" height="120" as="geometry" />
        </mxCell>
        <mxCell id="CZpamqKngdFFSSyl5rh1-4" value="Lane 3" style="swimlane;startSize=20;horizontal=0;html=1;" vertex="1" parent="CZpamqKngdFFSSyl5rh1-1">
          <mxGeometry y="260" width="830" height="120" as="geometry" />
        </mxCell>
      </root>
    </mxGraphModel>
  </diagram>
</mxfile>
